HIERARCHY
ROOT Hips
{
    OFFSET 0.0 0.0 0.0
    CHANNELS 6 Xposition Yposition Zposition Zrotation Xrotation Yrotation
    JOINT RightUpLeg
    {
        OFFSET -0.1 0.0 0.0
        CHANNELS 3 Zrotation Xrotation Yrotation
        JOINT RightLeg
        {
            OFFSET 0.0 -0.45 0.0
            CHANNELS 1 Xrotation
            JOINT RightFoot
            {
                OFFSET 0.0 -0.45 0.0
                CHANNELS 0
                End Site
                {
                    OFFSET 0.0 -0.1 0.1
                }
            }
        }
    }
    JOINT LeftUpLeg
    {
        OFFSET 0.1 0.0 0.0
        CHANNELS 3 Zrotation Xrotation Yrotation
        JOINT LeftLeg
        {
            OFFSET 0.0 -0.45 0.0
            CHANNELS 1 Xrotation
            JOINT LeftFoot
            {
                OFFSET 0.0 -0.45 0.0
                CHANNELS 0
                End Site
                {
                    OFFSET 0.0 -0.1 0.1
                }
            }
        }
    }
    JOINT Spine
    {
        OFFSET 0.0 0.2 0.0
        CHANNELS 3 Zrotation Xrotation Yrotation
        End Site
        {
            OFFSET 0.0 0.5 0.0
        }
    }
}
MOTION
Frames: 29
Frame Time: 0.016667
-15.3542 125.7365 343.6075 0.0000 0.0000 0.0000 -9.0210 5.6891 3.2951 -2.5997 -3.2847 -4.6673 -29.5805 -67.3095 -1.5428 -2.0631 -0.3136
-15.9572 125.5225 346.5392 0.0000 0.0000 0.0000 -9.1916 5.6027 3.5273 -6.3667 -1.0975 -6.5888 -27.5200 -51.2367 -0.7573 -2.1950 -0.2660
-16.4883 125.3896 349.2696 0.0000 0.0000 0.0000 -9.8611 5.0784 2.1270 -15.5693 0.7048 -8.0644 -19.0111 -31.5099 0.3334 -2.0180 -0.2892
-16.6784 126.6370 351.7279 0.0000 0.0000 0.0000 -10.0655 1.9114 -0.7680 -28.7305 1.6829 -5.4257 -9.8324 -23.6638 -0.0720 0.5709 -0.3840
-16.6395 127.5678 354.3858 0.0000 0.0000 0.0000 -9.5428 -0.9586 -7.1519 -43.6200 2.2903 -2.7728 -4.3320 -20.6369 -1.8506 2.0396 -0.3481
-16.5696 127.8796 357.1169 0.0000 0.0000 0.0000 -8.8054 -1.6005 -14.8202 -56.4173 2.8455 -1.4210 0.1445 -18.5316 -3.7451 2.0497 -0.5028
-16.4765 127.8043 359.8499 0.0000 0.0000 0.0000 -8.2815 -1.2470 -20.6896 -64.2569 2.9130 -0.5572 4.5908 -16.2560 -4.7274 1.7210 -0.3418
-16.3454 127.4993 362.6788 0.0000 0.0000 0.0000 -8.0022 -0.6257 -24.5619 -67.1985 2.4753 0.1202 8.5248 -14.3446 -4.8161 1.3519 -0.1194
-16.1646 127.0234 365.6975 0.0000 0.0000 0.0000 -7.9809 0.2066 -26.8758 -65.3545 1.6727 0.6496 11.4682 -12.9263 -4.0690 1.0330 -0.0050
-15.8927 126.4086 369.0023 0.0000 0.0000 0.0000 -8.3265 1.2447 -27.7943 -58.1854 0.4620 1.1635 13.0799 -12.1306 -2.4942 0.8714 -0.0306
-15.4769 125.6389 372.6529 0.0000 0.0000 0.0000 -9.1596 2.3949 -26.9852 -45.4909 -1.2680 1.6902 12.8788 -12.6210 -0.1411 0.8899 -0.0455
-15.0428 124.7535 376.4395 0.0000 0.0000 0.0000 -10.1694 3.5938 -23.5910 -31.1416 -3.2589 1.3372 10.7362 -16.6448 2.3583 0.5786 0.3985
-15.2962 125.1059 379.6553 0.0000 0.0000 0.0000 -10.5765 5.8963 -18.3217 -25.5041 -4.3711 -2.3582 6.8306 -27.0666 2.3730 -1.8130 0.6013
-15.7350 125.4671 382.5301 0.0000 0.0000 0.0000 -10.4555 5.8295 -11.6146 -19.0948 -5.5449 -3.9037 -0.6252 -43.5809 1.1056 -2.0789 -0.1573
-16.3367 125.8081 385.3655 0.0000 0.0000 0.0000 -9.9813 5.7436 -5.5484 -12.3736 -6.0928 -4.2767 -11.3896 -60.8182 -0.5740 -2.1732 -0.3962
-16.9950 125.8165 388.2471 0.0000 0.0000 0.0000 -9.6775 5.8692 -0.2091 -6.0454 -6.1136 -4.1842 -21.7870 -71.8339 -1.6382 -2.3363 -0.2201
-17.6330 125.6832 391.1493 0.0000 0.0000 0.0000 -9.6002 5.9124 3.5293 -2.8796 -4.9408 -4.5770 -27.9595 -71.9568 -1.8926 -2.4597 -0.1885
-18.2362 125.4955 394.0905 0.0000 0.0000 0.0000 -9.6821 5.8232 4.6586 -4.6278 -2.7465 -6.0789 -28.4540 -60.1224 -1.3851 -2.5289 -0.1143
-18.7865 125.0522 396.9857 0.0000 0.0000 0.0000 -10.1562 5.6592 3.3697 -11.7224 -0.3957 -8.4659 -22.9251 -38.6685 -0.2695 -2.9177 0.1953
-19.1101 125.9011 399.4643 0.0000 0.0000 0.0000 -10.5904 3.4750 1.3077 -23.8264 1.1758 -7.0538 -12.9875 -27.4677 -0.1074 -1.0501 0.0380
-19.1267 127.0568 402.0637 0.0000 0.0000 0.0000 -10.2285 0.0888 -3.8812 -37.6639 2.0644 -3.9462 -6.7894 -23.5790 -1.3918 1.2559 -0.0212
-19.0787 127.6426 404.7904 0.0000 0.0000 0.0000 -9.5388 -1.1415 -11.1202 -50.6489 2.9178 -2.1560 -2.0844 -21.1982 -3.2680 1.7860 -0.4374
-19.0105 127.7632 407.5021 0.0000 0.0000 0.0000 -8.8849 -1.0468 -17.1733 -59.5037 3.3585 -1.0393 2.6773 -18.5048 -4.4261 1.7043 -0.4904
-18.9106 127.5784 410.2956 0.0000 0.0000 0.0000 -8.3557 -0.5780 -21.4412 -63.4336 3.1736 -0.1475 6.9841 -15.9660 -4.6450 1.5199 -0.3769
-18.7519 127.1926 413.2888 0.0000 0.0000 0.0000 -8.0244 0.1405 -24.4337 -62.6497 2.4804 0.5637 10.2479 -13.8495 -4.1039 1.3201 -0.2768
-18.4894 126.6629 416.5635 0.0000 0.0000 0.0000 -8.0739 1.0858 -26.2525 -56.9445 1.3559 1.1945 12.1589 -12.3625 -2.7991 1.1480 -0.2476
-18.0856 125.9886 420.1587 0.0000 0.0000 0.0000 -8.6248 2.2241 -26.4894 -46.1990 -0.2487 1.7697 12.3178 -12.2053 -0.7336 1.0525 -0.1750
-17.5953 125.0466 423.9353 0.0000 0.0000 0.0000 -9.4345 3.2581 -24.1725 -32.3832 -2.3104 1.9438 10.3360 -15.5130 1.7197 1.0020 0.2158
-17.7280 125.2110 427.2781 0.0000 0.0000 0.0000 -9.7247 5.7722 -19.6836 -26.1558 -3.5694 -1.4659 6.3905 -24.8457 2.2826 -1.4778 0.6067
